<?xml version="1.0" encoding="UTF-8"?>
<svg width="18px" height="18px" viewBox="0 0 18 18" version="1.1" xmlns="http://www.w3.org/2000/svg" xmlns:xlink="http://www.w3.org/1999/xlink">
    <!-- Generator: sketchtool 53.2 (72643) - https://sketchapp.com -->
    <title>E606757D-0E73-4023-817A-127A0A7E9E9A@1x</title>
    <desc>Created with sketchtool.</desc>
    <g id="Desktop" stroke="none" stroke-width="1" fill="none" fill-rule="evenodd">
        <g id="Homev2a" transform="translate(-1284.000000, -26.000000)" stroke="#000000" stroke-width="2">
            <g id="Nav">
                <g id="Icon-/-Account" transform="translate(1281.000000, 23.000000)">
                    <g id="Account" transform="translate(4.000000, 4.000000)">
                        <path d="M5.10796836,8.8 C2.11923433,9.51414181 0,11.3028439 0,13.396172 C0,13.7058194 0.052049447,14.0076559 0.14135534,14.3016815 C2.05184399,15.3405347 4.86032257,16 8.00027394,16 C11.1402253,16 13.9487039,15.3405347 15.8597404,14.3016815 C15.9484984,14.0076559 16,13.7058194 16,13.396172 C16,11.3039597 13.8835051,9.51581558 10.8969626,8.80111585" id="Stroke-1"></path>
                        <path d="M12,5.2 C12,8.07154403 10.0303465,10.4 7.6,10.4 C5.17019802,10.4 3.2,8.07154403 3.2,5.2 C3.2,2.32845597 5.17019802,0 7.6,0 C10.0303465,0 12,2.32845597 12,5.2 Z" id="Stroke-3"></path>
                    </g>
                </g>
            </g>
        </g>
    </g>
</svg>