<?xml version="1.0" encoding="utf-8"?>
<!-- Generator: Adobe Illustrator 22.1.0, SVG Export Plug-In . SVG Version: 6.00 Build 0)  -->
<svg version="1.1" id="Layer_1" xmlns="http://www.w3.org/2000/svg" xmlns:xlink="http://www.w3.org/1999/xlink" width="53.08" height="171.358" x="0px" y="0px"
	 viewBox="0 0 53.1 171.4" style="enable-background:new 0 0 53.1 171.4;" xml:space="preserve">
<style type="text/css">
	.st0{fill:#000000;}
	.st1{fill:#FFFFFF;}
</style>
<path class="st0" d="M0,0h53.1v171.4H0V0z"/>
<g>
	<path class="st1" d="M20,153.7v-1.9h3.9v-4.1H20v-1.9h10.2v1.9h-4.6v4.1h4.6v1.9H20z M29.9,142.2c-0.3,0.6-0.8,1-1.4,1.3
		s-1.2,0.4-1.9,0.4c-0.7,0-1.4-0.1-1.9-0.4c-0.6-0.3-1-0.7-1.4-1.3c-0.3-0.6-0.5-1.2-0.5-2s0.2-1.4,0.5-2c0.3-0.6,0.8-1,1.4-1.3
		c0.6-0.3,1.2-0.4,1.9-0.4c0.7,0,1.4,0.1,1.9,0.4c0.6,0.3,1,0.7,1.4,1.3c0.3,0.6,0.5,1.2,0.5,2S30.2,141.7,29.9,142.2 M28.2,138.9
		c-0.4-0.3-1-0.5-1.6-0.5c-0.6,0-1.2,0.2-1.6,0.5c-0.4,0.3-0.6,0.8-0.6,1.3c0,0.6,0.2,1,0.6,1.3c0.4,0.3,1,0.5,1.6,0.5
		c0.6,0,1.2-0.2,1.6-0.5c0.4-0.3,0.6-0.8,0.6-1.3C28.8,139.7,28.6,139.2,28.2,138.9 M22.9,134.9V133h1.2c-0.4-0.3-0.7-0.6-1-1
		c-0.2-0.4-0.4-0.8-0.4-1.3c0-0.7,0.2-1.2,0.6-1.6c0.4-0.4,0.9-0.6,1.7-0.6h5.3v1.8h-4.7c-0.4,0-0.7,0.1-0.9,0.3
		c-0.2,0.2-0.3,0.4-0.3,0.8c0,0.3,0.1,0.6,0.4,0.8c0.2,0.3,0.6,0.5,1,0.6c0.5,0.2,1,0.2,1.6,0.2h2.9v1.8L22.9,134.9L22.9,134.9z
		 M29.9,125.1c-0.3,0.6-0.8,1-1.4,1.3c-0.6,0.3-1.2,0.4-1.9,0.4c-0.7,0-1.4-0.1-1.9-0.4c-0.6-0.3-1-0.7-1.4-1.3
		c-0.3-0.6-0.5-1.2-0.5-2c0-0.8,0.2-1.4,0.5-2c0.3-0.6,0.8-1,1.4-1.3c0.6-0.3,1.2-0.4,1.9-0.4c0.7,0,1.4,0.1,1.9,0.4s1,0.7,1.4,1.3
		s0.5,1.2,0.5,2C30.4,123.9,30.2,124.6,29.9,125.1 M28.2,121.8c-0.4-0.3-1-0.5-1.6-0.5c-0.6,0-1.2,0.2-1.6,0.5
		c-0.4,0.3-0.6,0.8-0.6,1.3c0,0.6,0.2,1,0.6,1.3c0.4,0.3,1,0.5,1.6,0.5c0.6,0,1.2-0.2,1.6-0.5c0.4-0.3,0.6-0.8,0.6-1.3
		C28.8,122.6,28.6,122.1,28.2,121.8 M22.9,117.8v-1.8h1.2c-0.4-0.3-0.7-0.6-1-1s-0.3-0.8-0.3-1.2c0-0.3,0-0.6,0.1-0.9l1.7,0.3
		c-0.1,0.2-0.2,0.5-0.2,0.8c0,0.6,0.3,1,0.8,1.4c0.5,0.4,1.3,0.6,2.5,0.6h2.6v1.8H22.9z M29.8,111.3c-0.4,0.5-0.9,0.9-1.4,1
		l-0.8-1.4c0.4-0.1,0.7-0.3,0.9-0.6c0.2-0.2,0.3-0.5,0.3-0.9c0-0.2,0-0.5-0.2-0.7c-0.1-0.2-0.3-0.3-0.5-0.3c-0.2,0-0.4,0.1-0.5,0.3
		c-0.1,0.2-0.3,0.5-0.4,1c0,0.1-0.1,0.2-0.1,0.3c-0.2,0.6-0.5,1-0.8,1.3c-0.3,0.3-0.8,0.5-1.3,0.5c-0.4,0-0.7-0.1-1-0.3
		c-0.3-0.2-0.6-0.5-0.7-0.8c-0.2-0.4-0.3-0.8-0.3-1.2c0-0.5,0.1-0.9,0.3-1.4c0.2-0.4,0.5-0.7,0.9-0.9l1,1.1
		c-0.4,0.3-0.6,0.7-0.6,1.2c0,0.2,0,0.4,0.2,0.5c0.1,0.1,0.2,0.2,0.4,0.2c0.2,0,0.3-0.1,0.5-0.3c0.1-0.2,0.3-0.6,0.5-1.2
		c0.2-0.6,0.5-1,0.8-1.3c0.3-0.3,0.8-0.5,1.3-0.5c0.7,0,1.3,0.2,1.7,0.7s0.6,1.1,0.6,1.8C30.4,110.1,30.2,110.7,29.8,111.3 M35.5,17
		l-4.8,15h-3.3l-2.6-9.7L22.3,32H19l-4.8-15h3.7l2.7,10.3L23.1,17h3.4l2.5,10.3L31.8,17L35.5,17z M38,27.2c1.4,0,2.5,1.1,2.5,2.5
		c0,1.4-1.1,2.5-2.5,2.5c-1.4,0-2.5-1.1-2.5-2.5C35.5,28.2,36.6,27.2,38,27.2"/>
</g>
</svg>
