<?xml version="1.0" encoding="UTF-8"?>
<svg width="9px" height="20px" viewBox="0 0 9 20" version="1.1" xmlns="http://www.w3.org/2000/svg" xmlns:xlink="http://www.w3.org/1999/xlink">
    <!-- Generator: sketchtool 53.2 (72643) - https://sketchapp.com -->
    <title>D51177B9-3CF1-46C0-AEE3-BF7EAF59383B@1x</title>
    <desc>Created with sketchtool.</desc>
    <g id="Desktop" stroke="none" stroke-width="1" fill="none" fill-rule="evenodd">
        <g id="Homev2a" transform="translate(-1246.000000, -2802.000000)" fill="#000000">
            <g id="Footer3" transform="translate(0.000000, 2239.000000)">
                <g id="Element-/-Footer" transform="translate(0.000000, 529.000000)">
                    <path d="M1254.69509,40.9288801 L1252.04934,40.9288801 L1252.04934,38.953378 C1252.24245,37.0855658 1254.98984,37.4407283 1254.98984,37.4407283 L1254.99111,37.3130695 L1254.98984,37.2988059 L1254.98984,34.2307157 L1254.98984,34.2307157 L1254.98984,34.2307157 L1254.9873,34.2307157 C1254.89328,34.2050413 1249.52174,32.7744069 1248.45518,37.3637051 C1248.45518,37.3644183 1248.45518,37.3658446 1248.45391,37.3665578 C1248.452,37.3772555 1248.44946,37.3872399 1248.44756,37.3972244 C1248.27922,37.9706193 1248.29065,40.5986789 1248.2932,40.9288801 L1246,40.9288801 L1246,44.4427064 L1248.43549,44.4427064 L1248.43549,54 L1251.982,54 L1251.982,44.4427064 L1254.69445,44.4427064 L1255,40.9288801 L1254.69509,40.9288801 Z" id="Faceboook"></path>
                </g>
            </g>
        </g>
    </g>
</svg>