<?xml version="1.0" encoding="UTF-8"?>
<svg width="20px" height="20px" viewBox="0 0 20 20" version="1.1" xmlns="http://www.w3.org/2000/svg" xmlns:xlink="http://www.w3.org/1999/xlink">
    <!-- Generator: sketchtool 53.2 (72643) - https://sketchapp.com -->
    <title>016160FF-045B-4883-A910-BBC8B51BB0AD@1x</title>
    <desc>Created with sketchtool.</desc>
    <g id="Desktop" stroke="none" stroke-width="1" fill="none" fill-rule="evenodd">
        <g id="Homev2a" transform="translate(-1279.000000, -2802.000000)" fill="#000000">
            <g id="Footer3" transform="translate(0.000000, 2239.000000)">
                <g id="Element-/-Footer" transform="translate(0.000000, 529.000000)">
                    <path d="M1281.38285,34 C1282.69669,34 1283.76362,35.0676923 1283.76362,36.3807692 C1283.76362,37.6953846 1282.69669,38.7623077 1281.38285,38.7623077 C1280.06285,38.7623077 1278.99977,37.6953846 1278.99977,36.3807692 C1278.99977,35.0676923 1280.06285,34 1281.38285,34 L1281.38285,34 Z M1286.01438,40.57 L1289.95131,40.57 L1289.95131,42.3753846 L1290.00746,42.3753846 C1290.55515,41.3361538 1291.89592,40.2407692 1293.89438,40.2407692 C1298.04977,40.2407692 1298.81823,42.9769231 1298.81823,46.5361538 L1298.81823,53.7846154 L1294.71438,53.7846154 L1294.71438,47.3584615 C1294.71438,45.8261538 1294.68515,43.8546154 1292.58054,43.8546154 C1290.44208,43.8546154 1290.11669,45.5230769 1290.11669,47.2476923 L1290.11669,53.7846154 L1286.01438,53.7846154 L1286.01438,40.57 Z M1279.32592,53.7846154 L1283.43746,53.7846154 L1283.43746,40.57 L1279.32592,40.57 L1279.32592,53.7846154 Z" id="LinkedIn"></path>
                </g>
            </g>
        </g>
    </g>
</svg>