<?xml version="1.0" encoding="UTF-8"?>
<svg width="19px" height="19px" viewBox="0 0 19 19" version="1.1" xmlns="http://www.w3.org/2000/svg" xmlns:xlink="http://www.w3.org/1999/xlink">
    <!-- Generator: sketchtool 53.2 (72643) - https://sketchapp.com -->
    <title>5C4B8639-145F-4D99-9B75-33FB98FAA57A@1x</title>
    <desc>Created with sketchtool.</desc>
    <g id="Desktop" stroke="none" stroke-width="1" fill="none" fill-rule="evenodd">
        <g id="Homev2a" transform="translate(-1202.000000, -2804.000000)" fill="#000000">
            <g id="Footer3" transform="translate(0.000000, 2239.000000)">
                <g id="Element-/-Footer" transform="translate(0.000000, 529.000000)">
                    <g id="IG" transform="translate(1202.289855, 36.289855)">
                        <path d="M9.27245457,0.00585231194 C6.7541937,0.00585231194 6.4384265,0.01652634 5.44942259,0.0616517138 C4.46247987,0.106666667 3.7884334,0.263427651 3.19863814,0.492661606 C2.58889349,0.729588222 2.07179204,1.04664366 1.55627329,1.5621256 C1.04079135,2.07764435 0.72373591,2.5947458 0.486809294,3.20449045 C0.257575339,3.79428571 0.100814355,4.46833218 0.0557994019,5.4552749 C0.0106740281,6.44427881 0,6.76004601 0,9.27830688 C0,11.7965309 0.0106740281,12.1122981 0.0557994019,13.101302 C0.100814355,14.0882448 0.257575339,14.7622912 0.486809294,15.3520865 C0.72373591,15.9618311 1.04079135,16.4789326 1.55627329,16.9944513 C2.07179204,17.5099333 2.58889349,17.8269887 3.19863814,18.0639522 C3.7884334,18.2931493 4.46247987,18.4499103 5.44942259,18.4949252 C6.4384265,18.5400506 6.7541937,18.5507246 9.27245457,18.5507246 C11.7906786,18.5507246 12.1064458,18.5400506 13.0954497,18.4949252 C14.0823925,18.4499103 14.7564389,18.2931493 15.3462342,18.0639522 C15.9559788,17.8269887 16.4730803,17.5099333 16.988599,16.9944513 C17.504081,16.4789326 17.8211364,15.9618311 18.0580998,15.3520865 C18.287297,14.7622912 18.444058,14.0882448 18.4890729,13.101302 C18.5341983,12.1122981 18.5448723,11.7965309 18.5448723,9.27830688 C18.5448723,6.76004601 18.5341983,6.44427881 18.4890729,5.4552749 C18.444058,4.46833218 18.287297,3.79428571 18.0580998,3.20449045 C17.8211364,2.5947458 17.504081,2.07764435 16.988599,1.5621256 C16.4730803,1.04664366 15.9559788,0.729588222 15.3462342,0.492661606 C14.7564389,0.263427651 14.0823925,0.106666667 13.0954497,0.0616517138 C12.1064458,0.01652634 11.7906786,0.00585231194 9.27245457,0.00585231194 Z M9.27245457,1.67655855 C11.748277,1.67655855 12.0415551,1.68601794 13.0192961,1.73062802 C13.9233494,1.77185185 14.4143179,1.92290775 14.7410536,2.04989188 C15.173867,2.21809984 15.4827513,2.41902922 15.807205,2.74351967 C16.1316954,3.06797331 16.3326248,3.3768576 16.5008328,3.80967104 C16.6278169,4.13640672 16.7788728,4.6273752 16.8200966,5.53142857 C16.8647067,6.50916954 16.8741661,6.80244767 16.8741661,9.27830688 C16.8741661,11.7541293 16.8647067,12.0474074 16.8200966,13.0251484 C16.7788728,13.9292017 16.6278169,14.4201702 16.5008328,14.7469059 C16.3326248,15.1797193 16.1316954,15.4886036 15.807205,15.8130573 C15.4827513,16.1375477 15.173867,16.3384771 14.7410536,16.5066851 C14.4143179,16.6336692 13.9233494,16.7847251 13.0192961,16.8259489 C12.0417023,16.870559 11.748461,16.8800184 9.27245457,16.8800184 C6.79641132,16.8800184 6.50320681,16.870559 5.52557626,16.8259489 C4.62152289,16.7847251 4.13055441,16.6336692 3.80381873,16.5066851 C3.37100529,16.3384771 3.062121,16.1375477 2.73766736,15.8130573 C2.41321371,15.4886036 2.21224753,15.1797193 2.04403957,14.7469059 C1.91705544,14.4201702 1.76599954,13.9292017 1.72477571,13.0251484 C1.68016563,12.0474074 1.67070623,11.7541293 1.67070623,9.27830688 C1.67070623,6.80244767 1.68016563,6.50916954 1.72477571,5.53142857 C1.76599954,4.6273752 1.91705544,4.13640672 2.04403957,3.80967104 C2.21224753,3.3768576 2.4131769,3.06797331 2.73766736,2.74351967 C3.062121,2.41902922 3.37100529,2.21809984 3.80381873,2.04989188 C4.13055441,1.92290775 4.62152289,1.77185185 5.52557626,1.73062802 C6.50331723,1.68601794 6.79659535,1.67655855 9.27245457,1.67655855 L9.27245457,1.67655855 Z" id="Fill-1"></path>
                        <path d="M9.27538024,12.2857888 C7.61274191,12.2857888 6.26493582,10.9379827 6.26493582,9.27538024 C6.26493582,7.61274191 7.61274191,6.26493582 9.27538024,6.26493582 C10.9379827,6.26493582 12.2857888,7.61274191 12.2857888,9.27538024 C12.2857888,10.9379827 10.9379827,12.2857888 9.27538024,12.2857888 Z M9.27538024,4.63768116 C6.71402527,4.63768116 4.63768116,6.71402527 4.63768116,9.27538024 C4.63768116,11.8366994 6.71402527,13.9130435 9.27538024,13.9130435 C11.8366994,13.9130435 13.9130435,11.8366994 13.9130435,9.27538024 C13.9130435,6.71402527 11.8366994,4.63768116 9.27538024,4.63768116 L9.27538024,4.63768116 Z" id="Fill-4"></path>
                        <path d="M15.0724638,4.63770034 C15.0724638,5.27803646 14.5533604,5.79710145 13.9130243,5.79710145 C13.2727265,5.79710145 12.7536232,5.27803646 12.7536232,4.63770034 C12.7536232,3.99736421 13.2727265,3.47826087 13.9130243,3.47826087 C14.5533604,3.47826087 15.0724638,3.99736421 15.0724638,4.63770034" id="Fill-5"></path>
                    </g>
                </g>
            </g>
        </g>
    </g>
</svg>