<?xml version="1.0" standalone="no"?>
<!DOCTYPE svg PUBLIC "-//W3C//DTD SVG 20010904//EN"
 "http://www.w3.org/TR/2001/REC-SVG-20010904/DTD/svg10.dtd">
<svg version="1.0" xmlns="http://www.w3.org/2000/svg"
 width="16.000000pt" height="16.000000pt" viewBox="0 0 16.000000 16.000000"
 preserveAspectRatio="xMidYMid meet">
<metadata>
Created by potrace 1.11, written by Peter Selinger 2001-2013
</metadata>
<g transform="translate(0.000000,16.000000) scale(0.002286,-0.002286)"
fill="#000000" stroke="none">
<path d="M702 3550 l3 -2695 368 0 367 0 0 2692 c0 1481 -3 2694 -7 2694 -5 1
-171 2 -371 3 l-362 1 2 -2695z"/>
<path d="M4399 3921 l-1162 -2325 16 -45 c8 -25 32 -89 52 -141 20 -52 41
-106 45 -120 5 -14 17 -47 28 -75 10 -27 36 -95 56 -150 88 -237 109 -290 116
-298 7 -8 2740 5445 2740 5467 0 8 -100 11 -364 11 l-365 0 -1162 -2324z"/>
<path d="M6251 2878 c-24 -46 -101 -189 -171 -318 -70 -129 -148 -275 -175
-325 -26 -49 -55 -103 -65 -120 -9 -16 -40 -73 -67 -125 -28 -52 -78 -145
-112 -207 -33 -62 -61 -116 -61 -120 0 -4 -9 -19 -20 -33 -19 -24 -20 -43 -20
-400 l0 -375 359 0 c198 0 362 2 365 5 5 5 19 2100 14 2100 -2 0 -23 -37 -47
-82z"/>
</g>
</svg>
